<svg width="13" height="25" viewBox="0 0 13 25" fill="none" xmlns="http://www.w3.org/2000/svg">
<path d="M7.9303 5.84888C7.9303 6.0948 7.9303 6.89632 7.9303 8.03504H12.3296L11.8526 11.5251H7.9303C7.9303 16.9075 7.9303 24.12 7.9303 24.12H2.72404C2.72404 24.12 2.72404 17.0029 2.72404 11.5251H0.0112305V8.03504H2.72404C2.72404 6.65097 2.72404 5.66679 2.72404 5.39277C2.72404 4.08716 2.61351 3.46768 3.23689 2.45596C3.86058 1.44428 5.61979 0.107048 8.66251 0.139242C11.706 0.17261 12.9888 0.433167 12.9888 0.433167L12.3296 4.15273C12.3296 4.15273 10.3862 3.69605 9.43228 3.8588C8.47963 4.0216 7.9303 4.54384 7.9303 5.84888Z" fill="#F6FFBD"/>
</svg>
