<svg width="23" height="22" viewBox="0 0 23 22" fill="none" xmlns="http://www.w3.org/2000/svg">
<path fill-rule="evenodd" clip-rule="evenodd" d="M0.25 4.42975C0.25 2.13293 2.26472 0.270996 4.75 0.270996H18.25C20.7352 0.270996 22.75 2.13293 22.75 4.42975V16.906C22.75 19.2028 20.7352 21.0648 18.25 21.0648H4.75C2.26472 21.0648 0.25 19.2028 0.25 16.906V4.42975ZM4.75 2.35037C3.50736 2.35037 2.5 3.28134 2.5 4.42975V16.906C2.5 18.0544 3.50736 18.9854 4.75 18.9854H18.25C19.4927 18.9854 20.5 18.0544 20.5 16.906V4.42975C20.5 3.28134 19.4927 2.35037 18.25 2.35037H4.75ZM11.5 7.54881C9.63599 7.54881 8.125 8.94522 8.125 10.6679C8.125 12.3905 9.63599 13.7869 11.5 13.7869C13.364 13.7869 14.875 12.3905 14.875 10.6679C14.875 8.94522 13.364 7.54881 11.5 7.54881ZM5.875 10.6679C5.875 7.79686 8.3934 5.46943 11.5 5.46943C14.6066 5.46943 17.125 7.79686 17.125 10.6679C17.125 13.5389 14.6066 15.8663 11.5 15.8663C8.3934 15.8663 5.875 13.5389 5.875 10.6679ZM17.6875 6.50912C18.6194 6.50912 19.375 5.8109 19.375 4.94959C19.375 4.08828 18.6194 3.39006 17.6875 3.39006C16.7555 3.39006 16 4.08828 16 4.94959C16 5.8109 16.7555 6.50912 17.6875 6.50912Z" fill="#F6FFBD"/>
</svg>
