<svg width="27" height="21" viewBox="0 0 27 21" fill="none" xmlns="http://www.w3.org/2000/svg">
<path fill-rule="evenodd" clip-rule="evenodd" d="M8.4915 20.6483C18.68 20.6483 24.2528 12.9673 24.2528 6.30728C24.2528 6.08864 24.2527 5.87164 24.2365 5.65545C25.3206 4.943 26.2562 4.05843 27 3.04628C25.9902 3.45409 24.9169 3.72153 23.8194 3.83945C24.975 3.20931 25.8404 2.21933 26.2548 1.05117C25.1667 1.63832 23.9773 2.0527 22.7367 2.27504C20.6388 0.245815 17.1301 0.147499 14.8986 2.05634C13.4609 3.28714 12.8493 5.12223 13.2962 6.87261C8.8425 6.66872 4.6926 4.75499 1.8792 1.60676C0.40905 3.90989 1.161 6.85514 3.59505 8.33407C2.7135 8.31072 1.85085 8.09477 1.08 7.70416V7.76813C1.08135 10.1671 2.9403 12.2327 5.5242 12.7081C4.7088 12.9107 3.8529 12.9401 3.024 12.794C3.74895 14.8478 5.8293 16.2545 8.19855 16.295C6.237 17.6978 3.81375 18.4595 1.31895 18.457C0.87885 18.4558 0.43875 18.4324 0 18.3845C2.53395 19.8634 5.481 20.6483 8.4915 20.6446" fill="#F6FFBD"/>
</svg>
